%TF.GenerationSoftware,KiCad,Pcbnew,8.0.5*%
%TF.CreationDate,2024-12-14T11:54:29+02:00*%
%TF.ProjectId,embedded_system_project,656d6265-6464-4656-945f-73797374656d,rev?*%
%TF.SameCoordinates,Original*%
%TF.FileFunction,Copper,L1,Top*%
%TF.FilePolarity,Positive*%
%FSLAX46Y46*%
G04 Gerber Fmt 4.6, Leading zero omitted, Abs format (unit mm)*
G04 Created by KiCad (PCBNEW 8.0.5) date 2024-12-14 11:54:29*
%MOMM*%
%LPD*%
G01*
G04 APERTURE LIST*
G04 Aperture macros list*
%AMRoundRect*
0 Rectangle with rounded corners*
0 $1 Rounding radius*
0 $2 $3 $4 $5 $6 $7 $8 $9 X,Y pos of 4 corners*
0 Add a 4 corners polygon primitive as box body*
4,1,4,$2,$3,$4,$5,$6,$7,$8,$9,$2,$3,0*
0 Add four circle primitives for the rounded corners*
1,1,$1+$1,$2,$3*
1,1,$1+$1,$4,$5*
1,1,$1+$1,$6,$7*
1,1,$1+$1,$8,$9*
0 Add four rect primitives between the rounded corners*
20,1,$1+$1,$2,$3,$4,$5,0*
20,1,$1+$1,$4,$5,$6,$7,0*
20,1,$1+$1,$6,$7,$8,$9,0*
20,1,$1+$1,$8,$9,$2,$3,0*%
G04 Aperture macros list end*
%TA.AperFunction,ComponentPad*%
%ADD10C,1.600000*%
%TD*%
%TA.AperFunction,ComponentPad*%
%ADD11O,1.600000X1.600000*%
%TD*%
%TA.AperFunction,ComponentPad*%
%ADD12R,1.300000X1.300000*%
%TD*%
%TA.AperFunction,ComponentPad*%
%ADD13C,1.300000*%
%TD*%
%TA.AperFunction,ComponentPad*%
%ADD14R,1.800000X1.800000*%
%TD*%
%TA.AperFunction,ComponentPad*%
%ADD15C,1.800000*%
%TD*%
%TA.AperFunction,ComponentPad*%
%ADD16R,1.860000X1.860000*%
%TD*%
%TA.AperFunction,ComponentPad*%
%ADD17C,1.860000*%
%TD*%
%TA.AperFunction,ComponentPad*%
%ADD18C,1.270000*%
%TD*%
%TA.AperFunction,ComponentPad*%
%ADD19R,3.000000X3.000000*%
%TD*%
%TA.AperFunction,ComponentPad*%
%ADD20C,3.000000*%
%TD*%
%TA.AperFunction,ComponentPad*%
%ADD21C,2.000000*%
%TD*%
%TA.AperFunction,ComponentPad*%
%ADD22R,2.000000X2.000000*%
%TD*%
%TA.AperFunction,ComponentPad*%
%ADD23O,2.000000X2.000000*%
%TD*%
%TA.AperFunction,ComponentPad*%
%ADD24C,1.440000*%
%TD*%
%TA.AperFunction,ComponentPad*%
%ADD25R,2.055000X2.055000*%
%TD*%
%TA.AperFunction,ComponentPad*%
%ADD26C,2.055000*%
%TD*%
%TA.AperFunction,ComponentPad*%
%ADD27R,3.500000X3.500000*%
%TD*%
%TA.AperFunction,ComponentPad*%
%ADD28RoundRect,0.750000X-1.000000X0.750000X-1.000000X-0.750000X1.000000X-0.750000X1.000000X0.750000X0*%
%TD*%
%TA.AperFunction,ComponentPad*%
%ADD29RoundRect,0.875000X-0.875000X0.875000X-0.875000X-0.875000X0.875000X-0.875000X0.875000X0.875000X0*%
%TD*%
%TA.AperFunction,ComponentPad*%
%ADD30C,1.238000*%
%TD*%
%TA.AperFunction,ComponentPad*%
%ADD31R,1.238000X1.238000*%
%TD*%
%TA.AperFunction,ComponentPad*%
%ADD32O,3.556000X1.778000*%
%TD*%
%TA.AperFunction,ComponentPad*%
%ADD33R,2.200000X2.200000*%
%TD*%
%TA.AperFunction,ComponentPad*%
%ADD34O,2.200000X2.200000*%
%TD*%
%TA.AperFunction,ComponentPad*%
%ADD35RoundRect,0.250000X-0.250000X-0.250000X0.250000X-0.250000X0.250000X0.250000X-0.250000X0.250000X0*%
%TD*%
%TA.AperFunction,ComponentPad*%
%ADD36C,1.000000*%
%TD*%
%TA.AperFunction,ComponentPad*%
%ADD37R,2.000000X1.200000*%
%TD*%
%TA.AperFunction,ComponentPad*%
%ADD38O,2.000000X1.200000*%
%TD*%
%TA.AperFunction,ComponentPad*%
%ADD39R,1.500000X1.500000*%
%TD*%
%TA.AperFunction,ViaPad*%
%ADD40C,0.600000*%
%TD*%
%TA.AperFunction,ViaPad*%
%ADD41C,0.800000*%
%TD*%
%TA.AperFunction,Conductor*%
%ADD42C,0.800000*%
%TD*%
%TA.AperFunction,Conductor*%
%ADD43C,0.200000*%
%TD*%
G04 APERTURE END LIST*
D10*
%TO.P,R1,1*%
%TO.N,Net-(LED1-A)*%
X131000000Y-35000000D03*
D11*
%TO.P,R1,2*%
%TO.N,8V5*%
X123380000Y-35000000D03*
%TD*%
D12*
%TO.P,Q1,1,C*%
%TO.N,Net-(1N914-A)*%
X73330000Y-68270000D03*
D13*
%TO.P,Q1,2,B*%
%TO.N,Net-(Q1-B)*%
X74600000Y-67000000D03*
%TO.P,Q1,3,E*%
%TO.N,GND*%
X75870000Y-68270000D03*
%TD*%
D14*
%TO.P,100\u0025LED1,1,K*%
%TO.N,Net-(100\u0025LED1-K)*%
X27200000Y-67400000D03*
D15*
%TO.P,100\u0025LED1,2,A*%
%TO.N,100\u0025LED*%
X29740000Y-67400000D03*
%TD*%
D10*
%TO.P,R17,1*%
%TO.N,Net-(OPAMP2-Pad1)*%
X32550000Y-85390000D03*
D11*
%TO.P,R17,2*%
%TO.N,Net-(OPAMP2A--)*%
X32550000Y-93010000D03*
%TD*%
D10*
%TO.P,R12,1*%
%TO.N,BUZZER*%
X66200000Y-66200000D03*
D11*
%TO.P,R12,2*%
%TO.N,Net-(Q1-B)*%
X66200000Y-73820000D03*
%TD*%
D14*
%TO.P,60\u0025LED1,1,K*%
%TO.N,Net-(60\u0025LED1-K)*%
X27125000Y-51800000D03*
D15*
%TO.P,60\u0025LED1,2,A*%
%TO.N,60\u0025LED*%
X29665000Y-51800000D03*
%TD*%
D10*
%TO.P,C13,1*%
%TO.N,Net-(MK1-+)*%
X94000000Y-92550000D03*
D11*
%TO.P,C13,2*%
%TO.N,Net-(C13-Pad2)*%
X94000000Y-85050000D03*
%TD*%
D10*
%TO.P,R18,1*%
%TO.N,MIC_ADC*%
X38800000Y-85390000D03*
D11*
%TO.P,R18,2*%
%TO.N,Net-(OPAMP2-Pad1)*%
X38800000Y-93010000D03*
%TD*%
D16*
%TO.P,REG2,1,GND*%
%TO.N,GND*%
X106600000Y-75800000D03*
D17*
%TO.P,REG2,2,VO*%
%TO.N,3V3*%
X109140000Y-75800000D03*
%TO.P,REG2,3,VI*%
%TO.N,8V5*%
X111680000Y-75800000D03*
%TD*%
D14*
%TO.P,LED1,1,K*%
%TO.N,GND*%
X131725000Y-25800000D03*
D15*
%TO.P,LED1,2,A*%
%TO.N,Net-(LED1-A)*%
X134265000Y-25800000D03*
%TD*%
D18*
%TO.P,OPAMP2,1*%
%TO.N,Net-(OPAMP2-Pad1)*%
X74270000Y-92820000D03*
%TO.P,OPAMP2,2,-*%
%TO.N,Net-(OPAMP2A--)*%
X74270000Y-90280000D03*
%TO.P,OPAMP2,3,+*%
%TO.N,Net-(OPAMP2A-+)*%
X74270000Y-87740000D03*
%TO.P,OPAMP2,4*%
%TO.N,GND*%
X74270000Y-85200000D03*
%TO.P,OPAMP2,5*%
%TO.N,N/C*%
X66650000Y-85200000D03*
%TO.P,OPAMP2,6*%
X66650000Y-87740000D03*
%TO.P,OPAMP2,7*%
X66650000Y-90280000D03*
%TO.P,OPAMP2,8*%
%TO.N,5V*%
X66650000Y-92820000D03*
%TD*%
D10*
%TO.P,C12,1*%
%TO.N,5V*%
X102060000Y-92910000D03*
D11*
%TO.P,C12,2*%
%TO.N,Net-(1N914-A)*%
X102060000Y-85410000D03*
%TD*%
D10*
%TO.P,R14,1*%
%TO.N,Net-(1N914-A)*%
X96800000Y-77620000D03*
D11*
%TO.P,R14,2*%
%TO.N,5V*%
X96800000Y-70000000D03*
%TD*%
D10*
%TO.P,C9,1*%
%TO.N,3V3*%
X124450000Y-79200000D03*
D11*
%TO.P,C9,2*%
%TO.N,GND*%
X131950000Y-79200000D03*
%TD*%
D19*
%TO.P,BATTERY1,1,Pin_1*%
%TO.N,Net-(BATTERY1-Pin_1)*%
X121400000Y-25200000D03*
D20*
%TO.P,BATTERY1,2,Pin_2*%
%TO.N,GND*%
X126480000Y-25200000D03*
%TD*%
D21*
%TO.P,F1,1*%
%TO.N,Net-(BATTERY1-Pin_1)*%
X114740000Y-25000000D03*
%TO.P,F1,2*%
%TO.N,Net-(SWITCH1-B)*%
X109660000Y-25000000D03*
%TD*%
D22*
%TO.P,C3,1*%
%TO.N,5V*%
X120700000Y-57957500D03*
D23*
%TO.P,C3,2*%
%TO.N,GND*%
X105700000Y-57957500D03*
%TD*%
D14*
%TO.P,DEBUG_LED2,1,K*%
%TO.N,Net-(DEBUG_LED2-K)*%
X78000000Y-20810000D03*
D15*
%TO.P,DEBUG_LED2,2,A*%
%TO.N,DEBUG_LED2*%
X75460000Y-20810000D03*
%TD*%
D22*
%TO.P,C14,1*%
%TO.N,5V*%
X109200000Y-87400000D03*
D23*
%TO.P,C14,2*%
%TO.N,GND*%
X124200000Y-87400000D03*
%TD*%
D10*
%TO.P,C7,1*%
%TO.N,3V3*%
X124450000Y-66400000D03*
D11*
%TO.P,C7,2*%
%TO.N,GND*%
X131950000Y-66400000D03*
%TD*%
D24*
%TO.P,POTENTIOMETER1,1*%
%TO.N,Net-(C13-Pad2)*%
X55260000Y-89215000D03*
%TO.P,POTENTIOMETER1,2*%
%TO.N,Net-(OPAMP2A--)*%
X57800000Y-91755000D03*
%TO.P,POTENTIOMETER1,3*%
%TO.N,GND*%
X60340000Y-89215000D03*
%TD*%
D25*
%TO.P,REG1,1,IN*%
%TO.N,8V5*%
X107250000Y-50262500D03*
D26*
%TO.P,REG1,2,GND*%
%TO.N,GND*%
X109800000Y-50262500D03*
%TO.P,REG1,3,OUT*%
%TO.N,5V*%
X112350000Y-50262500D03*
%TD*%
D22*
%TO.P,BUZZER1,1,+*%
%TO.N,5V*%
X89600000Y-72600000D03*
D21*
%TO.P,BUZZER1,2,-*%
%TO.N,Net-(1N914-A)*%
X82000000Y-72600000D03*
%TD*%
D27*
%TO.P,PWR_IN1,1*%
%TO.N,Net-(D1-A)*%
X99157500Y-27600000D03*
D28*
%TO.P,PWR_IN1,2*%
%TO.N,GND*%
X99157500Y-21600000D03*
D29*
%TO.P,PWR_IN1,3*%
%TO.N,unconnected-(PWR_IN1-Pad3)*%
X94457500Y-24600000D03*
%TD*%
D10*
%TO.P,C8,1*%
%TO.N,3V3*%
X124450000Y-72800000D03*
D11*
%TO.P,C8,2*%
%TO.N,GND*%
X131950000Y-72800000D03*
%TD*%
D10*
%TO.P,C2,1*%
%TO.N,8V5*%
X131950000Y-47600000D03*
D11*
%TO.P,C2,2*%
%TO.N,GND*%
X124450000Y-47600000D03*
%TD*%
D14*
%TO.P,80\u0025LED1,1,K*%
%TO.N,Net-(80\u0025LED1-K)*%
X27200000Y-59400000D03*
D15*
%TO.P,80\u0025LED1,2,A*%
%TO.N,80\u0025LED*%
X29740000Y-59400000D03*
%TD*%
D10*
%TO.P,R4,1*%
%TO.N,Net-(OPAMP1A--)*%
X92230000Y-43550000D03*
D11*
%TO.P,R4,2*%
%TO.N,BattSignal*%
X92230000Y-51170000D03*
%TD*%
D30*
%TO.P,1N914,A*%
%TO.N,Net-(1N914-A)*%
X77948500Y-75270000D03*
D31*
%TO.P,1N914,K*%
%TO.N,5V*%
X70411500Y-75270000D03*
%TD*%
D10*
%TO.P,R6,1*%
%TO.N,Net-(DEBUG_LED2-K)*%
X77200000Y-28990000D03*
D11*
%TO.P,R6,2*%
%TO.N,GND*%
X77200000Y-36610000D03*
%TD*%
D10*
%TO.P,R19,1*%
%TO.N,GND*%
X44800000Y-93010000D03*
D11*
%TO.P,R19,2*%
%TO.N,MIC_ADC*%
X44800000Y-85390000D03*
%TD*%
D10*
%TO.P,R13,1*%
%TO.N,Net-(MK1-+)*%
X87600000Y-85040000D03*
D11*
%TO.P,R13,2*%
%TO.N,5V*%
X87600000Y-92660000D03*
%TD*%
D10*
%TO.P,R16,1*%
%TO.N,Net-(OPAMP2A-+)*%
X82650000Y-85190000D03*
D11*
%TO.P,R16,2*%
%TO.N,5V*%
X82650000Y-92810000D03*
%TD*%
D10*
%TO.P,R8,1*%
%TO.N,Net-(80\u0025LED1-K)*%
X23410000Y-59400000D03*
D11*
%TO.P,R8,2*%
%TO.N,GND*%
X15790000Y-59400000D03*
%TD*%
D10*
%TO.P,R9,1*%
%TO.N,Net-(60\u0025LED1-K)*%
X23400000Y-51600000D03*
D11*
%TO.P,R9,2*%
%TO.N,GND*%
X15780000Y-51600000D03*
%TD*%
D10*
%TO.P,R2,1*%
%TO.N,Net-(OPAMP1A-+)*%
X100330000Y-43550000D03*
D11*
%TO.P,R2,2*%
%TO.N,8V5*%
X100330000Y-51170000D03*
%TD*%
D10*
%TO.P,C5,1*%
%TO.N,3V3*%
X124450000Y-60000000D03*
D11*
%TO.P,C5,2*%
%TO.N,GND*%
X131950000Y-60000000D03*
%TD*%
D10*
%TO.P,R10,1*%
%TO.N,Net-(40\u0025LED1-K)*%
X23410000Y-43600000D03*
D11*
%TO.P,R10,2*%
%TO.N,GND*%
X15790000Y-43600000D03*
%TD*%
D10*
%TO.P,R7,1*%
%TO.N,Net-(100\u0025LED1-K)*%
X23400000Y-67400000D03*
D11*
%TO.P,R7,2*%
%TO.N,GND*%
X15780000Y-67400000D03*
%TD*%
D32*
%TO.P,GYRO1,ADO,ADO*%
%TO.N,GND*%
X67202500Y-58467500D03*
%TO.P,GYRO1,GND,GND*%
X67202500Y-45767500D03*
%TO.P,GYRO1,INT,INT*%
%TO.N,MPU_INT*%
X67202500Y-61007500D03*
%TO.P,GYRO1,SCL,SCL*%
%TO.N,MPU_SCL*%
X67202500Y-48307500D03*
%TO.P,GYRO1,SDA,SDA*%
%TO.N,MPU_SDA*%
X67202500Y-50847500D03*
%TO.P,GYRO1,VCC,VCC*%
%TO.N,3V3*%
X67202500Y-43227500D03*
%TO.P,GYRO1,XCL,XCL*%
%TO.N,GND*%
X67202500Y-55927500D03*
%TO.P,GYRO1,XDA,XDA*%
X67202500Y-53387500D03*
%TD*%
D33*
%TO.P,D1,1,K*%
%TO.N,Net-(BATTERY1-Pin_1)*%
X118680000Y-35000000D03*
D34*
%TO.P,D1,2,A*%
%TO.N,Net-(D1-A)*%
X108520000Y-35000000D03*
%TD*%
D35*
%TO.P,MK1,1,-*%
%TO.N,GND*%
X22092500Y-88815000D03*
D36*
%TO.P,MK1,2,+*%
%TO.N,Net-(MK1-+)*%
X23992500Y-88815000D03*
%TD*%
D37*
%TO.P,MCU1,1,3V3*%
%TO.N,3V3*%
X36170000Y-19907900D03*
D38*
%TO.P,MCU1,2,3V3*%
X36170000Y-22447900D03*
%TO.P,MCU1,3,CHIP_PU*%
%TO.N,unconnected-(MCU1-CHIP_PU-Pad3)*%
X36170000Y-24987900D03*
%TO.P,MCU1,4,GPIO4/ADC1_CH3*%
%TO.N,BattSignal*%
X36170000Y-27527900D03*
%TO.P,MCU1,5,GPIO5/ADC1_CH4*%
%TO.N,unconnected-(MCU1-GPIO5{slash}ADC1_CH4-Pad5)*%
X36170000Y-30067900D03*
%TO.P,MCU1,6,GPIO6/ADC1_CH5*%
%TO.N,unconnected-(MCU1-GPIO6{slash}ADC1_CH5-Pad6)*%
X36170000Y-32607900D03*
%TO.P,MCU1,7,GPIO7/ADC1_CH6*%
%TO.N,unconnected-(MCU1-GPIO7{slash}ADC1_CH6-Pad7)*%
X36170000Y-35147900D03*
%TO.P,MCU1,8,GPIO15/ADC2_CH4/32K_P*%
%TO.N,20\u0025LED*%
X36170000Y-37687900D03*
%TO.P,MCU1,9,GPIO16/ADC2_CH5/32K_N*%
%TO.N,40\u0025LED*%
X36170000Y-40227900D03*
%TO.P,MCU1,10,GPIO17/ADC2_CH6*%
%TO.N,60\u0025LED*%
X36170000Y-42767900D03*
%TO.P,MCU1,11,GPIO18/ADC2_CH7*%
%TO.N,80\u0025LED*%
X36170000Y-45307900D03*
%TO.P,MCU1,12,GPIO8/ADC1_CH7*%
%TO.N,unconnected-(MCU1-GPIO8{slash}ADC1_CH7-Pad12)*%
X36170000Y-47847900D03*
%TO.P,MCU1,13,GPIO3/ADC1_CH2*%
%TO.N,unconnected-(MCU1-GPIO3{slash}ADC1_CH2-Pad13)*%
X36170000Y-50387900D03*
%TO.P,MCU1,14,GPIO46*%
%TO.N,unconnected-(MCU1-GPIO46-Pad14)*%
X36170000Y-52927900D03*
%TO.P,MCU1,15,GPIO9/ADC1_CH8*%
%TO.N,MIC_ADC*%
X36170000Y-55467900D03*
%TO.P,MCU1,16,GPIO10/ADC1_CH9*%
%TO.N,unconnected-(MCU1-GPIO10{slash}ADC1_CH9-Pad16)*%
X36170000Y-58007900D03*
%TO.P,MCU1,17,GPIO11/ADC2_CH0*%
%TO.N,unconnected-(MCU1-GPIO11{slash}ADC2_CH0-Pad17)*%
X36170000Y-60547900D03*
%TO.P,MCU1,18,GPIO12/ADC2_CH1*%
%TO.N,unconnected-(MCU1-GPIO12{slash}ADC2_CH1-Pad18)*%
X36170000Y-63087900D03*
%TO.P,MCU1,19,GPIO13/ADC2_CH2*%
%TO.N,unconnected-(MCU1-GPIO13{slash}ADC2_CH2-Pad19)*%
X36170000Y-65627900D03*
%TO.P,MCU1,20,GPIO14/ADC2_CH3*%
%TO.N,100\u0025LED*%
X36166320Y-68165180D03*
%TO.P,MCU1,21,5V*%
%TO.N,unconnected-(MCU1-5V-Pad21)*%
X36166320Y-70705180D03*
%TO.P,MCU1,22,GND*%
%TO.N,GND*%
X36166320Y-73245180D03*
%TO.P,MCU1,23,GND*%
X59030000Y-73247900D03*
%TO.P,MCU1,24,GND*%
X59030000Y-70707900D03*
%TO.P,MCU1,25,GPIO19/USB_D-*%
%TO.N,unconnected-(MCU1-GPIO19{slash}USB_D--Pad25)*%
X59030000Y-68167900D03*
%TO.P,MCU1,26,GPIO20/USB_D+*%
%TO.N,unconnected-(MCU1-GPIO20{slash}USB_D+-Pad26)*%
X59030000Y-65627900D03*
%TO.P,MCU1,27,GPIO21*%
%TO.N,unconnected-(MCU1-GPIO21-Pad27)*%
X59030000Y-63087900D03*
%TO.P,MCU1,28,GPIO47*%
%TO.N,unconnected-(MCU1-GPIO47-Pad28)*%
X59030000Y-60547900D03*
%TO.P,MCU1,29,GPIO48*%
%TO.N,unconnected-(MCU1-GPIO48-Pad29)*%
X59030000Y-58007900D03*
%TO.P,MCU1,30,GPIO45*%
%TO.N,unconnected-(MCU1-GPIO45-Pad30)*%
X59030000Y-55467900D03*
%TO.P,MCU1,31,GPIO0*%
%TO.N,unconnected-(MCU1-GPIO0-Pad31)*%
X59030000Y-52927900D03*
%TO.P,MCU1,32,GPIO35*%
%TO.N,DEBUG_LED2*%
X59030000Y-50387900D03*
%TO.P,MCU1,33,GPIO36*%
%TO.N,DEBUG_LED1*%
X59030000Y-47847900D03*
%TO.P,MCU1,34,GPIO37*%
%TO.N,MPU_INT*%
X59030000Y-45307900D03*
%TO.P,MCU1,35,GPIO38*%
%TO.N,MPU_SDA*%
X59030000Y-42767900D03*
%TO.P,MCU1,36,GPIO39/MTCK*%
%TO.N,MPU_SCL*%
X59030000Y-40227900D03*
%TO.P,MCU1,37,GPIO40/MTDO*%
%TO.N,BUZZER*%
X59030000Y-37687900D03*
%TO.P,MCU1,38,GPIO41/MTDI*%
%TO.N,unconnected-(MCU1-GPIO41{slash}MTDI-Pad38)*%
X59030000Y-35147900D03*
%TO.P,MCU1,39,GPIO42/MTMS*%
%TO.N,unconnected-(MCU1-GPIO42{slash}MTMS-Pad39)*%
X59030000Y-32607900D03*
%TO.P,MCU1,40,GPIO2/ADC1_CH1*%
%TO.N,unconnected-(MCU1-GPIO2{slash}ADC1_CH1-Pad40)*%
X59030000Y-30067900D03*
%TO.P,MCU1,41,GPIO1/ADC1_CH0*%
%TO.N,unconnected-(MCU1-GPIO1{slash}ADC1_CH0-Pad41)*%
X59030000Y-27527900D03*
%TO.P,MCU1,42,GPIO44/U0RXD*%
%TO.N,unconnected-(MCU1-GPIO44{slash}U0RXD-Pad42)*%
X59030000Y-24987900D03*
%TO.P,MCU1,43,GPIO43/U0TXD*%
%TO.N,unconnected-(MCU1-GPIO43{slash}U0TXD-Pad43)*%
X59030000Y-22447900D03*
%TO.P,MCU1,44,GND*%
%TO.N,GND*%
X59030000Y-19907900D03*
%TD*%
D10*
%TO.P,C4,1*%
%TO.N,5V*%
X124450000Y-53800000D03*
D11*
%TO.P,C4,2*%
%TO.N,GND*%
X131950000Y-53800000D03*
%TD*%
D39*
%TO.P,SWITCH1,1,C*%
%TO.N,unconnected-(SWITCH1-C-Pad1)*%
X100340000Y-34800000D03*
D10*
%TO.P,SWITCH1,2,B*%
%TO.N,Net-(SWITCH1-B)*%
X102880000Y-34800000D03*
%TO.P,SWITCH1,3,A*%
%TO.N,8V5*%
X97800000Y-34800000D03*
%TD*%
D14*
%TO.P,DEBUG_LED1,1,K*%
%TO.N,Net-(DEBUG_LED1-K)*%
X68800000Y-20800000D03*
D15*
%TO.P,DEBUG_LED1,2,A*%
%TO.N,DEBUG_LED1*%
X66260000Y-20800000D03*
%TD*%
D22*
%TO.P,C1,1*%
%TO.N,8V5*%
X128500000Y-41357500D03*
D23*
%TO.P,C1,2*%
%TO.N,GND*%
X113500000Y-41357500D03*
%TD*%
D10*
%TO.P,R5,1*%
%TO.N,Net-(DEBUG_LED1-K)*%
X67460000Y-29180000D03*
D11*
%TO.P,R5,2*%
%TO.N,GND*%
X67460000Y-36800000D03*
%TD*%
D22*
%TO.P,C6,1*%
%TO.N,3V3*%
X120300000Y-66357500D03*
D23*
%TO.P,C6,2*%
%TO.N,GND*%
X105300000Y-66357500D03*
%TD*%
D10*
%TO.P,C10,1*%
%TO.N,Net-(OPAMP1A-+)*%
X90750000Y-34620000D03*
D11*
%TO.P,C10,2*%
%TO.N,GND*%
X83250000Y-34620000D03*
%TD*%
D14*
%TO.P,20\u0025LED1,1,K*%
%TO.N,Net-(20\u0025LED1-K)*%
X26860000Y-35800000D03*
D15*
%TO.P,20\u0025LED1,2,A*%
%TO.N,20\u0025LED*%
X29400000Y-35800000D03*
%TD*%
D10*
%TO.P,R15,1*%
%TO.N,GND*%
X78400000Y-92660000D03*
D11*
%TO.P,R15,2*%
%TO.N,Net-(OPAMP2A-+)*%
X78400000Y-85040000D03*
%TD*%
D10*
%TO.P,C11,1*%
%TO.N,GND*%
X86400000Y-51120000D03*
D11*
%TO.P,C11,2*%
%TO.N,BattSignal*%
X86400000Y-43620000D03*
%TD*%
D10*
%TO.P,R11,1*%
%TO.N,Net-(20\u0025LED1-K)*%
X23400000Y-35800000D03*
D11*
%TO.P,R11,2*%
%TO.N,GND*%
X15780000Y-35800000D03*
%TD*%
D18*
%TO.P,OPAMP1,1*%
%TO.N,Net-(OPAMP1A--)*%
X91980000Y-64820000D03*
%TO.P,OPAMP1,2,-*%
X94520000Y-64820000D03*
%TO.P,OPAMP1,3,+*%
%TO.N,Net-(OPAMP1A-+)*%
X97060000Y-64820000D03*
%TO.P,OPAMP1,4*%
%TO.N,GND*%
X99600000Y-64820000D03*
%TO.P,OPAMP1,5*%
%TO.N,N/C*%
X99600000Y-57200000D03*
%TO.P,OPAMP1,6*%
X97060000Y-57200000D03*
%TO.P,OPAMP1,7*%
X94520000Y-57200000D03*
%TO.P,OPAMP1,8*%
%TO.N,5V*%
X91980000Y-57200000D03*
%TD*%
D14*
%TO.P,40\u0025LED1,1,K*%
%TO.N,Net-(40\u0025LED1-K)*%
X27000000Y-43600000D03*
D15*
%TO.P,40\u0025LED1,2,A*%
%TO.N,40\u0025LED*%
X29540000Y-43600000D03*
%TD*%
D10*
%TO.P,R3,1*%
%TO.N,GND*%
X96280000Y-43550000D03*
D11*
%TO.P,R3,2*%
%TO.N,Net-(OPAMP1A-+)*%
X96280000Y-51170000D03*
%TD*%
D40*
%TO.N,GND*%
X48600000Y-20400000D03*
D41*
%TO.N,Net-(OPAMP1A--)*%
X85452100Y-64357500D03*
%TO.N,Net-(OPAMP2-Pad1)*%
X71191200Y-95257500D03*
D40*
%TO.N,DEBUG_LED2*%
X55594100Y-22549300D03*
%TO.N,DEBUG_LED1*%
X61679500Y-21222500D03*
%TO.N,MPU_INT*%
X63633400Y-50172700D03*
D41*
%TO.N,Net-(C13-Pad2)*%
X61565700Y-81844300D03*
%TO.N,BattSignal*%
X65488600Y-40467100D03*
X52608300Y-25535600D03*
%TD*%
D42*
%TO.N,GND*%
X59030000Y-19907900D02*
X49092100Y-19907900D01*
X49092100Y-19907900D02*
X48600000Y-20400000D01*
%TO.N,Net-(OPAMP1A--)*%
X94520000Y-64820000D02*
X91980000Y-64820000D01*
X85914600Y-64820000D02*
X85452100Y-64357500D01*
X91980000Y-64820000D02*
X85914600Y-64820000D01*
%TO.N,Net-(1N914-A)*%
X82000000Y-75270000D02*
X82000000Y-72600000D01*
X94450000Y-75270000D02*
X82000000Y-75270000D01*
X96800000Y-77620000D02*
X94450000Y-75270000D01*
X82000000Y-75270000D02*
X77948500Y-75270000D01*
%TO.N,Net-(OPAMP2A--)*%
X32550000Y-93010000D02*
X34241700Y-93010000D01*
X53544100Y-96010900D02*
X57800000Y-91755000D01*
X37242600Y-96010900D02*
X53544100Y-96010900D01*
X34241700Y-93010000D02*
X37242600Y-96010900D01*
%TO.N,Net-(OPAMP2-Pad1)*%
X42200900Y-94719200D02*
X40491700Y-93010000D01*
X52035100Y-94719200D02*
X42200900Y-94719200D01*
X56611500Y-90142800D02*
X52035100Y-94719200D01*
X58727800Y-90142800D02*
X56611500Y-90142800D01*
X63842500Y-95257500D02*
X58727800Y-90142800D01*
X71191200Y-95257500D02*
X63842500Y-95257500D01*
X38800000Y-93010000D02*
X40491700Y-93010000D01*
%TO.N,Net-(OPAMP2A-+)*%
X82500000Y-85040000D02*
X82650000Y-85190000D01*
X78400000Y-85040000D02*
X82500000Y-85040000D01*
X76708300Y-85301700D02*
X76708300Y-85040000D01*
X74270000Y-87740000D02*
X76708300Y-85301700D01*
X78400000Y-85040000D02*
X76708300Y-85040000D01*
%TO.N,MIC_ADC*%
X44800000Y-85390000D02*
X38800000Y-85390000D01*
D43*
%TO.N,20\u0025LED*%
X31287900Y-37687900D02*
X29400000Y-35800000D01*
X36170000Y-37687900D02*
X31287900Y-37687900D01*
%TO.N,40\u0025LED*%
X32912100Y-40227900D02*
X29540000Y-43600000D01*
X36170000Y-40227900D02*
X32912100Y-40227900D01*
%TO.N,Net-(100\u0025LED1-K)*%
X27200000Y-67400000D02*
X23400000Y-67400000D01*
%TO.N,Net-(80\u0025LED1-K)*%
X27200000Y-59400000D02*
X23410000Y-59400000D01*
%TO.N,100\u0025LED*%
X33809400Y-67400000D02*
X29740000Y-67400000D01*
X34574600Y-68165200D02*
X33809400Y-67400000D01*
X36166300Y-68165200D02*
X34574600Y-68165200D01*
%TO.N,Net-(60\u0025LED1-K)*%
X23600000Y-51800000D02*
X23400000Y-51600000D01*
X27125000Y-51800000D02*
X23600000Y-51800000D01*
%TO.N,DEBUG_LED2*%
X56965500Y-21177900D02*
X55594100Y-22549300D01*
X60463200Y-21177900D02*
X56965500Y-21177900D01*
X62375900Y-19265200D02*
X60463200Y-21177900D01*
X73915200Y-19265200D02*
X62375900Y-19265200D01*
X75460000Y-20810000D02*
X73915200Y-19265200D01*
%TO.N,Net-(40\u0025LED1-K)*%
X27000000Y-43600000D02*
X23410000Y-43600000D01*
%TO.N,DEBUG_LED1*%
X65837500Y-21222500D02*
X66260000Y-20800000D01*
X61679500Y-21222500D02*
X65837500Y-21222500D01*
%TO.N,Net-(20\u0025LED1-K)*%
X26860000Y-35800000D02*
X23400000Y-35800000D01*
%TO.N,MPU_INT*%
X59030000Y-45569300D02*
X63633400Y-50172700D01*
X59030000Y-45307900D02*
X59030000Y-45569300D01*
%TO.N,MPU_SDA*%
X59030000Y-42767900D02*
X60621700Y-42767900D01*
X67202500Y-50847500D02*
X64832800Y-50847500D01*
X60621700Y-45658200D02*
X60621700Y-42767900D01*
X64832800Y-49869300D02*
X60621700Y-45658200D01*
X64832800Y-50847500D02*
X64832800Y-49869300D01*
%TO.N,MPU_SCL*%
X59030000Y-40227900D02*
X60621700Y-40227900D01*
X67202500Y-48307500D02*
X64832800Y-48307500D01*
X64832800Y-44439000D02*
X60621700Y-40227900D01*
X64832800Y-48307500D02*
X64832800Y-44439000D01*
D42*
%TO.N,Net-(BATTERY1-Pin_1)*%
X118808300Y-25000000D02*
X119008300Y-25200000D01*
X114740000Y-25000000D02*
X118808300Y-25000000D01*
X121400000Y-25200000D02*
X119008300Y-25200000D01*
%TO.N,Net-(D1-A)*%
X101770000Y-30241700D02*
X99157500Y-30241700D01*
X106528300Y-35000000D02*
X101770000Y-30241700D01*
X108520000Y-35000000D02*
X106528300Y-35000000D01*
X99157500Y-27600000D02*
X99157500Y-30241700D01*
%TO.N,Net-(MK1-+)*%
X85866500Y-83306500D02*
X87600000Y-85040000D01*
X29501000Y-83306500D02*
X85866500Y-83306500D01*
X23992500Y-88815000D02*
X29501000Y-83306500D01*
X94000000Y-91440000D02*
X87600000Y-85040000D01*
X94000000Y-92550000D02*
X94000000Y-91440000D01*
%TO.N,Net-(C13-Pad2)*%
X89102600Y-81844300D02*
X92308300Y-85050000D01*
X61565700Y-81844300D02*
X89102600Y-81844300D01*
X94000000Y-85050000D02*
X92308300Y-85050000D01*
%TO.N,BattSignal*%
X88063400Y-45311700D02*
X92230000Y-49478300D01*
X86400000Y-45311700D02*
X88063400Y-45311700D01*
X92230000Y-51170000D02*
X92230000Y-49478300D01*
X86400000Y-43620000D02*
X86400000Y-44465800D01*
X86400000Y-44465800D02*
X86400000Y-45311700D01*
X82401300Y-40467100D02*
X65488600Y-40467100D01*
X86400000Y-44465800D02*
X82401300Y-40467100D01*
X50616000Y-27527900D02*
X36170000Y-27527900D01*
X52608300Y-25535600D02*
X50616000Y-27527900D01*
%TO.N,Net-(OPAMP1A-+)*%
X99680000Y-43550000D02*
X100330000Y-43550000D01*
X90750000Y-34620000D02*
X99680000Y-43550000D01*
%TO.N,3V3*%
X110453100Y-60000000D02*
X124450000Y-60000000D01*
X105748400Y-55295300D02*
X110453100Y-60000000D01*
X92999400Y-55295300D02*
X105748400Y-55295300D01*
X80931600Y-43227500D02*
X92999400Y-55295300D01*
X67202500Y-43227500D02*
X80931600Y-43227500D01*
X124407500Y-66357500D02*
X124450000Y-66400000D01*
X120300000Y-66357500D02*
X124407500Y-66357500D01*
X109140000Y-75930700D02*
X109140000Y-75800000D01*
X112409300Y-79200000D02*
X109140000Y-75930700D01*
X124450000Y-79200000D02*
X112409300Y-79200000D01*
%TO.N,8V5*%
X100330000Y-51170000D02*
X102021700Y-51170000D01*
X102929200Y-50262500D02*
X102021700Y-51170000D01*
X107250000Y-50262500D02*
X102929200Y-50262500D01*
X128500000Y-41357500D02*
X126608300Y-41357500D01*
X119622500Y-48343300D02*
X126608300Y-41357500D01*
X107250000Y-48343300D02*
X119622500Y-48343300D01*
X107250000Y-50262500D02*
X107250000Y-48343300D01*
%TO.N,5V*%
X92508300Y-72600000D02*
X95108300Y-70000000D01*
X89600000Y-72600000D02*
X92508300Y-72600000D01*
X96800000Y-70000000D02*
X95108300Y-70000000D01*
X120912500Y-50262500D02*
X124450000Y-53800000D01*
X112350000Y-50262500D02*
X120912500Y-50262500D01*
X109200000Y-87400000D02*
X107308300Y-87400000D01*
X70580500Y-92820000D02*
X66650000Y-92820000D01*
X72161800Y-94401300D02*
X70580500Y-92820000D01*
X79367000Y-94401300D02*
X72161800Y-94401300D01*
X80958300Y-92810000D02*
X79367000Y-94401300D01*
X107308300Y-87661700D02*
X102060000Y-92910000D01*
X107308300Y-87400000D02*
X107308300Y-87661700D01*
X90915100Y-94283400D02*
X89291700Y-92660000D01*
X100686600Y-94283400D02*
X90915100Y-94283400D01*
X102060000Y-92910000D02*
X100686600Y-94283400D01*
X87600000Y-92660000D02*
X89291700Y-92660000D01*
X81804200Y-92810000D02*
X80958300Y-92810000D01*
X81804200Y-92810000D02*
X82650000Y-92810000D01*
X85758300Y-92810000D02*
X85908300Y-92660000D01*
X82650000Y-92810000D02*
X85758300Y-92810000D01*
X87600000Y-92660000D02*
X85908300Y-92660000D01*
%TD*%
M02*
