%TF.GenerationSoftware,KiCad,Pcbnew,8.0.5*%
%TF.CreationDate,2024-12-14T11:54:29+02:00*%
%TF.ProjectId,embedded_system_project,656d6265-6464-4656-945f-73797374656d,rev?*%
%TF.SameCoordinates,Original*%
%TF.FileFunction,Soldermask,Bot*%
%TF.FilePolarity,Negative*%
%FSLAX46Y46*%
G04 Gerber Fmt 4.6, Leading zero omitted, Abs format (unit mm)*
G04 Created by KiCad (PCBNEW 8.0.5) date 2024-12-14 11:54:29*
%MOMM*%
%LPD*%
G01*
G04 APERTURE LIST*
G04 Aperture macros list*
%AMRoundRect*
0 Rectangle with rounded corners*
0 $1 Rounding radius*
0 $2 $3 $4 $5 $6 $7 $8 $9 X,Y pos of 4 corners*
0 Add a 4 corners polygon primitive as box body*
4,1,4,$2,$3,$4,$5,$6,$7,$8,$9,$2,$3,0*
0 Add four circle primitives for the rounded corners*
1,1,$1+$1,$2,$3*
1,1,$1+$1,$4,$5*
1,1,$1+$1,$6,$7*
1,1,$1+$1,$8,$9*
0 Add four rect primitives between the rounded corners*
20,1,$1+$1,$2,$3,$4,$5,0*
20,1,$1+$1,$4,$5,$6,$7,0*
20,1,$1+$1,$6,$7,$8,$9,0*
20,1,$1+$1,$8,$9,$2,$3,0*%
G04 Aperture macros list end*
%ADD10C,1.600000*%
%ADD11O,1.600000X1.600000*%
%ADD12R,1.300000X1.300000*%
%ADD13C,1.300000*%
%ADD14R,1.800000X1.800000*%
%ADD15C,1.800000*%
%ADD16RoundRect,0.102000X-0.930000X-0.930000X0.930000X-0.930000X0.930000X0.930000X-0.930000X0.930000X0*%
%ADD17C,2.064000*%
%ADD18C,1.474000*%
%ADD19R,3.000000X3.000000*%
%ADD20C,3.000000*%
%ADD21C,2.000000*%
%ADD22R,2.000000X2.000000*%
%ADD23O,2.000000X2.000000*%
%ADD24C,1.440000*%
%ADD25RoundRect,0.102000X-1.027500X-1.027500X1.027500X-1.027500X1.027500X1.027500X-1.027500X1.027500X0*%
%ADD26C,2.259000*%
%ADD27R,3.500000X3.500000*%
%ADD28RoundRect,0.750000X-1.000000X0.750000X-1.000000X-0.750000X1.000000X-0.750000X1.000000X0.750000X0*%
%ADD29RoundRect,0.875000X-0.875000X0.875000X-0.875000X-0.875000X0.875000X-0.875000X0.875000X0.875000X0*%
%ADD30C,1.442000*%
%ADD31RoundRect,0.102000X-0.619000X-0.619000X0.619000X-0.619000X0.619000X0.619000X-0.619000X0.619000X0*%
%ADD32O,3.760000X1.982000*%
%ADD33R,2.200000X2.200000*%
%ADD34O,2.200000X2.200000*%
%ADD35RoundRect,0.250000X-0.250000X-0.250000X0.250000X-0.250000X0.250000X0.250000X-0.250000X0.250000X0*%
%ADD36C,1.000000*%
%ADD37R,2.000000X1.200000*%
%ADD38O,2.000000X1.200000*%
%ADD39R,1.500000X1.500000*%
%ADD40C,0.600000*%
%ADD41C,0.800000*%
G04 APERTURE END LIST*
D10*
%TO.C,R1*%
X131000000Y-35000000D03*
D11*
X123380000Y-35000000D03*
%TD*%
D12*
%TO.C,Q1*%
X73330000Y-68270000D03*
D13*
X74600000Y-67000000D03*
X75870000Y-68270000D03*
%TD*%
D14*
%TO.C,100\u0025LED1*%
X27200000Y-67400000D03*
D15*
X29740000Y-67400000D03*
%TD*%
D10*
%TO.C,R17*%
X32550000Y-85390000D03*
D11*
X32550000Y-93010000D03*
%TD*%
D10*
%TO.C,R12*%
X66200000Y-66200000D03*
D11*
X66200000Y-73820000D03*
%TD*%
D14*
%TO.C,60\u0025LED1*%
X27125000Y-51800000D03*
D15*
X29665000Y-51800000D03*
%TD*%
D10*
%TO.C,C13*%
X94000000Y-92550000D03*
D11*
X94000000Y-85050000D03*
%TD*%
D10*
%TO.C,R18*%
X38800000Y-85390000D03*
D11*
X38800000Y-93010000D03*
%TD*%
D16*
%TO.C,REG2*%
X106600000Y-75800000D03*
D17*
X109140000Y-75800000D03*
X111680000Y-75800000D03*
%TD*%
D14*
%TO.C,LED1*%
X131725000Y-25800000D03*
D15*
X134265000Y-25800000D03*
%TD*%
D18*
%TO.C,OPAMP2*%
X74270000Y-92820000D03*
X74270000Y-90280000D03*
X74270000Y-87740000D03*
X74270000Y-85200000D03*
X66650000Y-85200000D03*
X66650000Y-87740000D03*
X66650000Y-90280000D03*
X66650000Y-92820000D03*
%TD*%
D10*
%TO.C,C12*%
X102060000Y-92910000D03*
D11*
X102060000Y-85410000D03*
%TD*%
D10*
%TO.C,R14*%
X96800000Y-77620000D03*
D11*
X96800000Y-70000000D03*
%TD*%
D10*
%TO.C,C9*%
X124450000Y-79200000D03*
D11*
X131950000Y-79200000D03*
%TD*%
D19*
%TO.C,BATTERY1*%
X121400000Y-25200000D03*
D20*
X126480000Y-25200000D03*
%TD*%
D21*
%TO.C,F1*%
X114740000Y-25000000D03*
X109660000Y-25000000D03*
%TD*%
D22*
%TO.C,C3*%
X120700000Y-57957500D03*
D23*
X105700000Y-57957500D03*
%TD*%
D14*
%TO.C,DEBUG_LED2*%
X78000000Y-20810000D03*
D15*
X75460000Y-20810000D03*
%TD*%
D22*
%TO.C,C14*%
X109200000Y-87400000D03*
D23*
X124200000Y-87400000D03*
%TD*%
D10*
%TO.C,C7*%
X124450000Y-66400000D03*
D11*
X131950000Y-66400000D03*
%TD*%
D24*
%TO.C,POTENTIOMETER1*%
X55260000Y-89215000D03*
X57800000Y-91755000D03*
X60340000Y-89215000D03*
%TD*%
D25*
%TO.C,REG1*%
X107250000Y-50262500D03*
D26*
X109800000Y-50262500D03*
X112350000Y-50262500D03*
%TD*%
D22*
%TO.C,BUZZER1*%
X89600000Y-72600000D03*
D21*
X82000000Y-72600000D03*
%TD*%
D27*
%TO.C,PWR_IN1*%
X99157500Y-27600000D03*
D28*
X99157500Y-21600000D03*
D29*
X94457500Y-24600000D03*
%TD*%
D10*
%TO.C,C8*%
X124450000Y-72800000D03*
D11*
X131950000Y-72800000D03*
%TD*%
D10*
%TO.C,C2*%
X131950000Y-47600000D03*
D11*
X124450000Y-47600000D03*
%TD*%
D14*
%TO.C,80\u0025LED1*%
X27200000Y-59400000D03*
D15*
X29740000Y-59400000D03*
%TD*%
D10*
%TO.C,R4*%
X92230000Y-43550000D03*
D11*
X92230000Y-51170000D03*
%TD*%
D30*
%TO.C,1N914*%
X77948500Y-75270000D03*
D31*
X70411500Y-75270000D03*
%TD*%
D10*
%TO.C,R6*%
X77200000Y-28990000D03*
D11*
X77200000Y-36610000D03*
%TD*%
D10*
%TO.C,R19*%
X44800000Y-93010000D03*
D11*
X44800000Y-85390000D03*
%TD*%
D10*
%TO.C,R13*%
X87600000Y-85040000D03*
D11*
X87600000Y-92660000D03*
%TD*%
D10*
%TO.C,R16*%
X82650000Y-85190000D03*
D11*
X82650000Y-92810000D03*
%TD*%
D10*
%TO.C,R8*%
X23410000Y-59400000D03*
D11*
X15790000Y-59400000D03*
%TD*%
D10*
%TO.C,R9*%
X23400000Y-51600000D03*
D11*
X15780000Y-51600000D03*
%TD*%
D10*
%TO.C,R2*%
X100330000Y-43550000D03*
D11*
X100330000Y-51170000D03*
%TD*%
D10*
%TO.C,C5*%
X124450000Y-60000000D03*
D11*
X131950000Y-60000000D03*
%TD*%
D10*
%TO.C,R10*%
X23410000Y-43600000D03*
D11*
X15790000Y-43600000D03*
%TD*%
D10*
%TO.C,R7*%
X23400000Y-67400000D03*
D11*
X15780000Y-67400000D03*
%TD*%
D32*
%TO.C,GYRO1*%
X67202500Y-58467500D03*
X67202500Y-45767500D03*
X67202500Y-61007500D03*
X67202500Y-48307500D03*
X67202500Y-50847500D03*
X67202500Y-43227500D03*
X67202500Y-55927500D03*
X67202500Y-53387500D03*
%TD*%
D33*
%TO.C,D1*%
X118680000Y-35000000D03*
D34*
X108520000Y-35000000D03*
%TD*%
D35*
%TO.C,MK1*%
X22092500Y-88815000D03*
D36*
X23992500Y-88815000D03*
%TD*%
D37*
%TO.C,MCU1*%
X36170000Y-19907900D03*
D38*
X36170000Y-22447900D03*
X36170000Y-24987900D03*
X36170000Y-27527900D03*
X36170000Y-30067900D03*
X36170000Y-32607900D03*
X36170000Y-35147900D03*
X36170000Y-37687900D03*
X36170000Y-40227900D03*
X36170000Y-42767900D03*
X36170000Y-45307900D03*
X36170000Y-47847900D03*
X36170000Y-50387900D03*
X36170000Y-52927900D03*
X36170000Y-55467900D03*
X36170000Y-58007900D03*
X36170000Y-60547900D03*
X36170000Y-63087900D03*
X36170000Y-65627900D03*
X36166320Y-68165180D03*
X36166320Y-70705180D03*
X36166320Y-73245180D03*
X59030000Y-73247900D03*
X59030000Y-70707900D03*
X59030000Y-68167900D03*
X59030000Y-65627900D03*
X59030000Y-63087900D03*
X59030000Y-60547900D03*
X59030000Y-58007900D03*
X59030000Y-55467900D03*
X59030000Y-52927900D03*
X59030000Y-50387900D03*
X59030000Y-47847900D03*
X59030000Y-45307900D03*
X59030000Y-42767900D03*
X59030000Y-40227900D03*
X59030000Y-37687900D03*
X59030000Y-35147900D03*
X59030000Y-32607900D03*
X59030000Y-30067900D03*
X59030000Y-27527900D03*
X59030000Y-24987900D03*
X59030000Y-22447900D03*
X59030000Y-19907900D03*
%TD*%
D10*
%TO.C,C4*%
X124450000Y-53800000D03*
D11*
X131950000Y-53800000D03*
%TD*%
D39*
%TO.C,SWITCH1*%
X100340000Y-34800000D03*
D10*
X102880000Y-34800000D03*
X97800000Y-34800000D03*
%TD*%
D14*
%TO.C,DEBUG_LED1*%
X68800000Y-20800000D03*
D15*
X66260000Y-20800000D03*
%TD*%
D22*
%TO.C,C1*%
X128500000Y-41357500D03*
D23*
X113500000Y-41357500D03*
%TD*%
D10*
%TO.C,R5*%
X67460000Y-29180000D03*
D11*
X67460000Y-36800000D03*
%TD*%
D22*
%TO.C,C6*%
X120300000Y-66357500D03*
D23*
X105300000Y-66357500D03*
%TD*%
D10*
%TO.C,C10*%
X90750000Y-34620000D03*
D11*
X83250000Y-34620000D03*
%TD*%
D14*
%TO.C,20\u0025LED1*%
X26860000Y-35800000D03*
D15*
X29400000Y-35800000D03*
%TD*%
D10*
%TO.C,R15*%
X78400000Y-92660000D03*
D11*
X78400000Y-85040000D03*
%TD*%
D10*
%TO.C,C11*%
X86400000Y-51120000D03*
D11*
X86400000Y-43620000D03*
%TD*%
D10*
%TO.C,R11*%
X23400000Y-35800000D03*
D11*
X15780000Y-35800000D03*
%TD*%
D18*
%TO.C,OPAMP1*%
X91980000Y-64820000D03*
X94520000Y-64820000D03*
X97060000Y-64820000D03*
X99600000Y-64820000D03*
X99600000Y-57200000D03*
X97060000Y-57200000D03*
X94520000Y-57200000D03*
X91980000Y-57200000D03*
%TD*%
D14*
%TO.C,40\u0025LED1*%
X27000000Y-43600000D03*
D15*
X29540000Y-43600000D03*
%TD*%
D10*
%TO.C,R3*%
X96280000Y-43550000D03*
D11*
X96280000Y-51170000D03*
%TD*%
D40*
X48600000Y-20400000D03*
D41*
X85452100Y-64357500D03*
X71191200Y-95257500D03*
D40*
X55594100Y-22549300D03*
X61679500Y-21222500D03*
X63633400Y-50172700D03*
D41*
X61565700Y-81844300D03*
X65488600Y-40467100D03*
X52608300Y-25535600D03*
M02*
