M48
; DRILL file {KiCad 8.0.5} date 2024-12-14T11:53:58+0200
; FORMAT={-:-/ absolute / metric / decimal}
; #@! TF.CreationDate,2024-12-14T11:53:58+02:00
; #@! TF.GenerationSoftware,Kicad,Pcbnew,8.0.5
; #@! TF.FileFunction,Plated,1,2,PTH
FMAT,2
METRIC
; #@! TA.AperFunction,Plated,PTH,ViaDrill
T1C0.300
; #@! TA.AperFunction,Plated,PTH,ComponentDrill
T2C0.650
; #@! TA.AperFunction,Plated,PTH,ComponentDrill
T3C0.730
; #@! TA.AperFunction,Plated,PTH,ComponentDrill
T4C0.750
; #@! TA.AperFunction,Plated,PTH,ComponentDrill
T5C0.800
; #@! TA.AperFunction,Plated,PTH,ComponentDrill
T6C0.813
; #@! TA.AperFunction,Plated,PTH,ComponentDrill
T7C0.900
; #@! TA.AperFunction,Plated,PTH,ComponentDrill
T8C1.000
; #@! TA.AperFunction,Plated,PTH,ComponentDrill
T9C1.100
; #@! TA.AperFunction,Plated,PTH,ComponentDrill
T10C1.240
; #@! TA.AperFunction,Plated,PTH,ComponentDrill
T11C1.370
; #@! TA.AperFunction,Plated,PTH,ComponentDrill
T12C1.520
%
G90
G05
T1
X48.6Y-20.4
X52.608Y-25.536
X55.594Y-22.549
X61.566Y-81.844
X61.679Y-21.223
X63.633Y-50.173
X65.489Y-40.467
X71.191Y-95.257
X85.452Y-64.358
T2
X22.092Y-88.815
X23.992Y-88.815
T3
X70.412Y-75.27
X77.948Y-75.27
T4
X73.33Y-68.27
X74.6Y-67.0
X75.87Y-68.27
T5
X15.78Y-35.8
X15.78Y-51.6
X15.78Y-67.4
X15.79Y-43.6
X15.79Y-59.4
X23.4Y-35.8
X23.4Y-51.6
X23.4Y-67.4
X23.41Y-43.6
X23.41Y-59.4
X32.55Y-85.39
X32.55Y-93.01
X36.166Y-68.165
X36.166Y-70.705
X36.166Y-73.245
X36.17Y-19.908
X36.17Y-22.448
X36.17Y-24.988
X36.17Y-27.528
X36.17Y-30.068
X36.17Y-32.608
X36.17Y-35.148
X36.17Y-37.688
X36.17Y-40.228
X36.17Y-42.768
X36.17Y-45.308
X36.17Y-47.848
X36.17Y-50.388
X36.17Y-52.928
X36.17Y-55.468
X36.17Y-58.008
X36.17Y-60.548
X36.17Y-63.088
X36.17Y-65.628
X38.8Y-85.39
X38.8Y-93.01
X44.8Y-85.39
X44.8Y-93.01
X55.26Y-89.215
X57.8Y-91.755
X59.03Y-19.908
X59.03Y-22.448
X59.03Y-24.988
X59.03Y-27.528
X59.03Y-30.068
X59.03Y-32.608
X59.03Y-35.148
X59.03Y-37.688
X59.03Y-40.228
X59.03Y-42.768
X59.03Y-45.308
X59.03Y-47.848
X59.03Y-50.388
X59.03Y-52.928
X59.03Y-55.468
X59.03Y-58.008
X59.03Y-60.548
X59.03Y-63.088
X59.03Y-65.628
X59.03Y-68.168
X59.03Y-70.708
X59.03Y-73.248
X60.34Y-89.215
X66.2Y-66.2
X66.2Y-73.82
X67.203Y-43.227
X67.203Y-45.767
X67.203Y-48.307
X67.203Y-50.847
X67.203Y-53.387
X67.203Y-55.927
X67.203Y-58.467
X67.203Y-61.008
X67.46Y-29.18
X67.46Y-36.8
X77.2Y-28.99
X77.2Y-36.61
X78.4Y-85.04
X78.4Y-92.66
X82.65Y-85.19
X82.65Y-92.81
X83.25Y-34.62
X86.4Y-43.62
X86.4Y-51.12
X87.6Y-85.04
X87.6Y-92.66
X90.75Y-34.62
X92.23Y-43.55
X92.23Y-51.17
X94.0Y-85.05
X94.0Y-92.55
X96.28Y-43.55
X96.28Y-51.17
X96.8Y-70.0
X96.8Y-77.62
X97.8Y-34.8
X100.33Y-43.55
X100.33Y-51.17
X100.34Y-34.8
X102.06Y-85.41
X102.06Y-92.91
X102.88Y-34.8
X123.38Y-35.0
X124.45Y-47.6
X124.45Y-53.8
X124.45Y-60.0
X124.45Y-66.4
X124.45Y-72.8
X124.45Y-79.2
X131.0Y-35.0
X131.95Y-47.6
X131.95Y-53.8
X131.95Y-60.0
X131.95Y-66.4
X131.95Y-72.8
X131.95Y-79.2
T6
X66.65Y-85.2
X66.65Y-87.74
X66.65Y-90.28
X66.65Y-92.82
X74.27Y-85.2
X74.27Y-87.74
X74.27Y-90.28
X74.27Y-92.82
X91.98Y-57.2
X91.98Y-64.82
X94.52Y-57.2
X94.52Y-64.82
X97.06Y-57.2
X97.06Y-64.82
X99.6Y-57.2
X99.6Y-64.82
T7
X26.86Y-35.8
X27.0Y-43.6
X27.125Y-51.8
X27.2Y-59.4
X27.2Y-67.4
X29.4Y-35.8
X29.54Y-43.6
X29.665Y-51.8
X29.74Y-59.4
X29.74Y-67.4
X66.26Y-20.8
X68.8Y-20.8
X75.46Y-20.81
X78.0Y-20.81
X131.725Y-25.8
X134.265Y-25.8
T8
X82.0Y-72.6
X89.6Y-72.6
X105.3Y-66.358
X105.7Y-57.957
X109.2Y-87.4
X109.66Y-25.0
X113.5Y-41.357
X114.74Y-25.0
X120.3Y-66.358
X120.7Y-57.957
X124.2Y-87.4
X128.5Y-41.357
T9
X108.52Y-35.0
X118.68Y-35.0
T10
X106.6Y-75.8
X109.14Y-75.8
X111.68Y-75.8
T11
X107.25Y-50.262
X109.8Y-50.262
X112.35Y-50.262
T12
X121.4Y-25.2
X126.48Y-25.2
T8
G00X94.457Y-23.6
M15
G01X94.457Y-25.6
M16
G05
G00X100.157Y-21.6
M15
G01X98.157Y-21.6
M16
G05
G00X100.157Y-27.6
M15
G01X98.157Y-27.6
M16
G05
M30
